<?xml version="1.0" encoding="UTF-8"?>
<svg id="Ebene_1" xmlns="http://www.w3.org/2000/svg" version="1.1" viewBox="0 0 170.1 111.6">
  <!-- Generator: Adobe Illustrator 29.1.0, SVG Export Plug-In . SVG Version: 2.1.0 Build 142)  -->
  <path d="M93.8,85.9c0,3.8-2.8,5.6-8.2,5.6h-5.9v-11.1h5.9c5.5,0,8.2,1.6,8.2,5.5M101.9,85.8c0-7.9-6-12.7-14.9-12.7h-15.4v38h8.1v-12h7.3c8.8,0,14.9-5.3,14.9-13.2M48.8,104.2c-5.5,0-7.9-4.3-7.9-9.7v-21.5h-8.1v21.1c0,11.6,6.2,17.5,15.9,17.5s15.9-5.9,15.9-17.5v-21.1h-8.1v21.4c0,6.1-2.3,9.8-7.9,9.8"/>
  <polygon points="161.6 73 152.7 100.5 143.6 73 135.5 73 148.5 111 156.8 111 169.8 73 161.6 73"/>
  <g>
    <path d="M137.8,20.8h10.9v30.6h8.1v-30.6h10.9v-7.4h-29.9v7.4ZM125.5,26.2c0,3.6-2.5,5.6-7.9,5.6h-6.2v-11h6.2c5.5,0,7.9,1.7,7.9,5.4M134.6,51.4l-8.5-13.8c4.4-2.1,7.4-6.4,7.4-11.8,0-7.9-6.3-12.4-14.5-12.4h-15.7v38h8.1v-12.2h6.3l7.5,12.2h9.4ZM85,36.8h-9.4l4.7-12.4,4.7,12.4ZM76.5,13.4l-14.9,38h8.4l3-7.5h14.7l3,7.5h8.4l-14.9-38h-7.7ZM33.9,20.8h10.9v30.6h8.1v-30.6h10.9v-7.4h-29.9v7.4ZM22.8,40.5c0,2.5-2.4,4.2-6.7,4.2s-7.2-1.8-8-5.9H0c.8,8.1,6.8,13.2,16.1,13.2s14.8-4.8,14.8-12-4-9.6-11.6-11.3l-4.7-1c-3.8-.9-5.2-1.8-5.2-3.6s2.4-4,5.9-4,6.2,2.3,6.7,5.3h8c-.7-7.3-5.8-12.6-14.6-12.6S1.4,17,1.4,24.6s4.6,9.6,11.7,11.2l4.7,1c3.8.9,5.1,1.8,5.1,3.7"/>
    <path d="M26.8,4.5C24.3,1.7,20.5,0,15.5,0S6.6,1.6,4.1,4.5h22.7ZM63.9.6h-29.9v3.9h29.9V.6ZM85.7,4.5l-1.5-3.9h-7.7l-1.5,3.9h10.7ZM130.1,4.5c-2.6-2.5-6.6-3.9-11.1-3.9h-15.7v3.9h26.8ZM167.7.6h-29.9v3.9h29.9V.6Z"/>
    <path d="M28.5,12.2c-2.2-4.3-6.7-7.1-13.1-7.1S4.5,7.6,2.4,12.2h26.1ZM63.9,5.7h-29.9v6.5h29.9v-6.5ZM86.7,12.2l-2.5-6.5h-7.7l-2.5,6.5h12.8ZM132.1,12.2c-2.3-4.2-7.2-6.5-13.1-6.5h-15.7v6.5h28.8ZM167.7,5.7h-29.9v6.5h29.9v-6.5Z"/>
  </g>
  <path d="M135.2,60.1l1.4,4h8.2l-1.3-4h-8.3ZM161.7,60.1l-1.3,4h8.3l1.4-4h-8.4Z"/>
  <path d="M135.2,65.2l2.2,6.6h8.2l-2.2-6.6h-8.3ZM161.7,65.2l-2.1,6.6h8.2l2.2-6.6h-8.4Z"/>
  <g>
    <path d="M41,60.2h-8.1v3.9h8.1v-3.9ZM64.8,60.2h-8.1v3.9h8.1v-3.9ZM98.2,64.1c-2.6-2.5-6.5-3.9-11.3-3.9h-15.4v3.9h26.7Z"/>
    <path d="M41,65.3h-8.1v6.5h8.1v-6.5ZM64.8,65.3h-8.1v6.5h8.1v-6.5ZM100.2,71.8c-2.3-4.1-7.1-6.5-13.3-6.5h-15.4v6.5h28.7Z"/>
  </g>
</svg>